# xmcd
#
# Track frame offsets:
#	150
#	67524
#	107148
#	176971
#	221750
#	260146
#	294627
#
# Disc length: 4233 seconds
#
# Revision: 1
# Processed by: cddbd v1.5.2PL0 Copyright (c) Steve Scherf et al.
# Submitted via: audiograbber 1.83.01
#
DISCID=6e108707
DTITLE=Grateful Dead - 72-11-14 Oklahoma City Music Hall, Oklahoma City OK
DYEAR=1900
DGENRE=
TTITLE0=He's Gone
TTITLE1=Truckin'
TTITLE2=The Other One
TTITLE3=Sing Me Back Home
TTITLE4=Sugar Magnolia
TTITLE5=Uncle John's Band
TTITLE6=One More Saturday Night
EXTD=
EXTT0=
EXTT1=
EXTT2=
EXTT3=
EXTT4=
EXTT5=
EXTT6=
PLAYORDER=
